<?xml version="1.0" encoding="utf-8"?>
<!-- Generator: Adobe Illustrator 27.1.0, SVG Export Plug-In . SVG Version: 6.00 Build 0)  -->
<svg version="1.1" id="Layer_1" xmlns="http://www.w3.org/2000/svg" xmlns:xlink="http://www.w3.org/1999/xlink" x="0px" y="0px"
	 width="382.2px" height="158.1px" viewBox="0 0 382.2 158.1" style="enable-background:new 0 0 382.2 158.1;" xml:space="preserve"
	>
<style type="text/css">
	.st0{fill:#121628;}
</style>
<g>
	<g>
		<path class="st0" d="M127.5,4.5c-0.5-1.9-2.1-2.9-4-2.9c-1.7,0-2.9,1.1-2.9,2.3c0,0.8,0.7,1.9,2.7,1.9
			C124.9,5.9,126.5,5.1,127.5,4.5 M120.2,8.7c0.8,0.6,1.9,1,3.1,1c2.1,0,4.1-1.4,4.2-3.9c-1,0.7-2.6,1.5-4.5,1.5
			c-3,0-4.3-1.8-4.3-3.4c0-2.2,2-3.9,4.8-3.9c3,0,5.8,1.9,5.8,5.5c0,3.7-2.8,5.8-5.9,5.8c-2.3,0-3.7-1-4.2-1.3L120.2,8.7z"/>
		<path class="st0" d="M140.1,9.7c2.2,0,4-1.8,4-4c0-2.2-1.8-4-4-4c-2.2,0-3.9,1.8-3.9,4C136.2,7.9,137.9,9.7,140.1,9.7 M140.1,0
			c3.1,0,5.8,2.5,5.8,5.7c0,3.2-2.7,5.7-5.8,5.7c-3.1,0-5.7-2.5-5.7-5.7C134.3,2.5,137,0,140.1,0"/>
		<path class="st0" d="M156.6,9.8c2.2,0,4-1.8,4-4c0-2.2-1.8-4-4-4c-2.2,0-3.9,1.8-3.9,4C152.7,7.9,154.5,9.8,156.6,9.8 M156.7,0.1
			c3.1,0,5.8,2.5,5.8,5.7c0,3.2-2.7,5.7-5.8,5.7c-3.1,0-5.7-2.5-5.7-5.7C150.9,2.6,153.5,0.1,156.7,0.1"/>
		<polygon class="st0" points="175.3,11.1 175.4,0.4 183.9,0.5 183.9,2.1 177.2,2.1 177.2,4.7 181.3,4.7 181.3,6.4 177.2,6.3 
			177.2,11.1 		"/>
		<path class="st0" d="M203.8,3c-0.6-0.5-1.9-1.2-3.9-1.2c-1.3,0-2.4,0.4-2.4,1.5c0,1.2,1.6,1.2,3.2,1.3c1.9,0.1,4.9,0.3,4.9,3.3
			c0,2.6-2.2,3.6-4.7,3.6c-2.8,0-4.6-1.2-5.8-2.2l1.1-1.3c0.9,0.8,2.4,1.9,4.7,1.9c1.6,0,2.8-0.5,2.8-1.7c0-1.3-1.2-1.6-3.1-1.8
			c-2.3-0.2-5-0.4-5-2.9c0-2.5,2.3-3.3,4.3-3.3c2.2,0,4.1,0.9,4.9,1.6L203.8,3z"/>
		<polygon class="st0" points="210.2,0.5 220.4,0.5 220.4,2.2 216.2,2.2 216.2,11.2 214.4,11.2 214.4,2.2 210.2,2.1 		"/>
		<polygon class="st0" points="242.5,0.6 242.5,11.2 240.9,11.2 234.8,3.8 234.8,3.8 234.7,11.2 232.9,11.2 232.9,0.6 234.6,0.6 
			240.7,8 240.7,8 240.7,0.6 		"/>
		<polygon class="st0" points="250.3,0.6 252.6,8.4 252.7,8.4 255.3,0.6 256.6,0.6 259.1,8.4 259.2,8.4 261.6,0.6 263.5,0.6 
			260,11.3 258.2,11.3 255.9,4.1 255.8,4.1 253.5,11.2 251.6,11.2 248.2,0.6 		"/>
	</g>
	<g>
		<polygon class="st0" points="105.5,146.8 103.1,154.6 103,154.6 100.5,146.8 99.2,146.8 96.6,154.6 96.5,154.6 94.2,146.8 
			92.2,146.8 95.6,157.4 97.4,157.4 99.7,150.3 99.8,150.3 102.1,157.4 104,157.4 107.4,146.8 		"/>
		<path class="st0" d="M116.7,149L116.7,149l1.9,4.1l-3.8,0L116.7,149z M116,146.8l-5,10.6l1.9,0l1.3-2.9l5.1,0l1.3,2.9l2,0
			l-4.9-10.7L116,146.8z"/>
		<path class="st0" d="M135.6,149.3c-0.6-0.5-1.9-1.2-3.9-1.2c-1.3,0-2.4,0.4-2.4,1.5c0,1.2,1.6,1.2,3.2,1.3
			c1.9,0.1,4.9,0.3,4.9,3.3c0,2.6-2.2,3.6-4.7,3.6c-2.8,0-4.6-1.2-5.8-2.2l1.1-1.3c0.9,0.8,2.4,1.9,4.7,1.9c1.6,0,2.8-0.5,2.8-1.7
			c0-1.3-1.2-1.6-3.1-1.8c-2.3-0.2-5-0.4-5-2.9c0-2.5,2.3-3.3,4.3-3.3c2.2,0,4.1,0.9,4.9,1.6L135.6,149.3z"/>
		<polygon class="st0" points="150.9,146.9 150.9,150.9 145.1,150.9 145.1,146.9 143.3,146.9 143.3,157.5 145.1,157.5 145.1,152.5 
			150.9,152.5 150.9,157.5 152.7,157.5 152.8,146.9 		"/>
		
			<rect x="155.3" y="151.3" transform="matrix(1.995306e-03 -1 1 1.995306e-03 8.072 312.5203)" class="st0" width="10.6" height="1.8"/>
		<polygon class="st0" points="176.3,146.9 176.2,154.3 176.2,154.3 170.1,146.9 168.5,146.9 168.5,157.6 170.3,157.6 170.3,150.2 
			170.3,150.2 176.4,157.6 178.1,157.6 178.1,146.9 		"/>
		<path class="st0" d="M193.6,149.7c-0.9-0.9-2.4-1.4-3.7-1.4c-2.3,0-3.9,1.8-3.9,4c0,2.1,1.4,4,4.1,4c1.1,0,2.4-0.3,3.1-0.9l0-2.1
			l-3.3,0l0-1.6l5,0l0,4.7c-1.3,1-3.2,1.6-4.9,1.6c-3.4,0-5.9-2.5-5.9-5.7c0-3.1,2.6-5.6,5.8-5.6c1.7,0,3.5,0.7,5,1.9L193.6,149.7z"
			/>
		<polygon class="st0" points="200.1,147 200.1,148.6 204.2,148.6 204.2,157.6 206.1,157.6 206.1,148.6 210.2,148.6 210.2,147 		"/>
		<path class="st0" d="M220.7,156.4c2.3,0,4.1-1.8,4.1-4c0-2.2-1.8-4-4.1-4c-2.3,0-4.1,1.8-4.1,4
			C216.6,154.5,218.4,156.3,220.7,156.4 M220.7,146.7c3.4,0,6,2.5,6,5.6c0,3.2-2.7,5.7-6,5.7c-3.4,0-6-2.5-6-5.7
			C214.7,149.2,217.4,146.7,220.7,146.7"/>
		<polygon class="st0" points="240.5,147.1 240.5,154.4 240.5,154.4 234.3,147 232.7,147 232.7,157.7 234.5,157.7 234.6,150.3 
			234.6,150.3 240.7,157.7 242.3,157.7 242.3,147.1 		"/>
		<path class="st0" d="M261.2,156.1c1.4,0,1.8-0.3,2.4-0.8c0.7-0.7,1.1-1.7,1.1-2.9c0-1.1-0.4-2.1-1-2.8c-0.6-0.6-1.2-0.9-2.5-0.9
			l-3.2,0l0,7.4L261.2,156.1z M256.2,157.7l0-10.6l5.1,0c1.9,0,3,0.5,3.9,1.4c0.9,1,1.4,2.4,1.4,3.9c0,1.6-0.6,3-1.6,4
			c-0.9,0.8-1.9,1.3-3.8,1.3L256.2,157.7z"/>
		<polygon class="st0" points="272.8,151.3 274.1,152.5 272.8,153.6 271.6,152.4 		"/>
		<path class="st0" d="M290,155.9c-1.1,1.1-2.9,2.2-5.3,2.2c-3.5,0-5.8-2.5-5.8-5.7c0-3.1,2.3-5.6,5.7-5.6c1.9,0,3.8,0.8,5,1.9
			l-1.2,1.2c-0.9-0.9-2.4-1.5-3.7-1.5c-2.3,0-3.8,1.8-3.9,4c0,2.2,1.5,4,3.9,4c1.7,0,3.1-0.8,4-1.8L290,155.9z"/>
	</g>
	<g>
		<path class="st0" d="M286.1,92.6c0,15.8-1.9,20.2-11.2,20.2c-12.7,0-16.4-8.1-16.4-33.3c0.1-25.2,3.8-33.3,16.5-33.3
			c10.7,0,20.6,9,20.6,21.2c0,0.8,0.1,1.8,1.7,1.8c1.2,0,1.7-0.9,1.7-1.8l0-22.7c0-0.6,0-1.7-1.8-1.7c-1.6,0-1.6,1.1-1.6,1.7
			c0,2.3-1.7,4.2-3.2,4.9c-4-3.9-9.6-7.7-18.3-7.7c-16.2,0-31.5,15-31.6,37.6c0,22.6,15.2,37.8,31.4,37.8c18,0,26.6-9,26.6-25.1l0-4
			l0-1.1c5.4,0,6.5,0.1,7.6,0.1c0.8,0,1.7-0.7,1.7-1.9c0-1.2-0.9-2-1.7-2c-1.1,0-2.2,0.6-11.4,0.5l-9.2,0c-9.2,0-10.3-0.6-11.4-0.6
			c-0.8,0-1.7,0.8-1.7,2c0,1.2,0.9,1.9,1.7,1.9c1.1,0,2.5-0.1,9.8-0.1l0,1.6L286.1,92.6z"/>
		<path class="st0" d="M379.1,92.9c0-7.9-5.2-18.2-18.4-20.9l-11.1-2.3c-5.6-1.1-10-5.2-10-11c0-8.3,6.5-12.4,14-12.4
			c12.3,0,17.3,9.1,17.3,15.6c0,0.8,0.2,1.8,1.7,1.8c1.3,0,1.7-0.9,1.7-1.8l0-18.2c0-0.6,0-1.7-1.7-1.7c-1.6,0-1.7,1.1-1.7,1.7
			c0,1.6-1.5,2.8-2.8,2.8c-3.1-2.4-8.5-4.5-14.8-4.5c-9.7,0-22.1,6.2-22.2,22.3c0,9.7,5,19.6,18.9,22.3l8,1.6
			c6.5,1.8,11.7,5.1,11.7,12c0,8.6-8,12.8-15.2,12.8c-10.8,0-19.9-7.6-19.8-18.5c0-0.9-0.2-1.8-1.7-1.8c-1.3,0-1.7,0.8-1.7,1.8
			l0,21.2c0,0.6,0,1.7,1.8,1.7c1.5,0,1.6-1.1,1.6-1.8c0-2.2,1.6-3.7,3-3.7c3.5,2.6,9.7,5.5,16.3,5.5
			C366.9,117.5,379.1,109.9,379.1,92.9"/>
		<path class="st0" d="M195.9,92.4c0,15.8-1.9,20.2-11.2,20.2c-12.7,0-16.4-8.1-16.4-33.3C168.4,54,172.1,46,184.9,46
			c10.7,0,20.6,9,20.6,21.2c0,0.8,0.1,1.8,1.7,1.8c1.2,0,1.7-0.9,1.7-1.8l0-22.7c0-0.6,0-1.7-1.8-1.7c-1.6,0-1.6,1.1-1.6,1.7
			c0,2.3-1.7,4.2-3.2,4.9c-4-3.9-9.6-7.7-18.3-7.7c-16.2,0-31.5,15-31.6,37.6c0,22.6,15.2,37.8,31.4,37.8c18,0,26.6-9,26.6-25.1l0-4
			l0-1.1c5.4,0,6.5,0.1,7.6,0.1c0.8,0,1.7-0.7,1.7-1.9c0-1.2-0.9-2-1.7-2c-1.1,0-2.2,0.6-11.4,0.5l-9.2,0c-9.2,0-10.3-0.6-11.4-0.6
			c-0.8,0-1.7,0.8-1.7,2c0,1.2,0.9,1.9,1.7,1.9c1.1,0,2.5-0.1,9.8-0.1l0,1.6L195.9,92.4z"/>
		<path class="st0" d="M125.5,111.4c-1.1,0-2.2,0.1-7.6,0.1l0-64.8l0,0c5.4,0,6.5,0.1,7.6,0.1c0.9,0,1.7-0.8,1.7-2
			c0-1.2-0.8-1.9-1.7-1.9c-1.1,0-2.2,0.6-11.4,0.5l-6.9,0c-9.1,0-10.3-0.6-11.4-0.6c-0.8,0-1.7,0.7-1.7,1.9c0,1.2,0.9,2,1.7,2
			c1.1,0,2.2-0.1,7.6-0.1l0,64.8l0,0c-5.4,0-6.5-0.1-7.6-0.1c-0.9,0-1.7,0.8-1.7,2c0,1.2,0.8,1.9,1.7,1.9c1.1,0,2.2-0.6,11.4-0.5
			l6.9,0c9.1,0,10.3,0.6,11.4,0.6c0.8,0,1.7-0.7,1.7-1.9C127.2,112.2,126.3,111.4,125.5,111.4z"/>
		<path class="st0" d="M66.8,107.7c-0.9,0-1.7,1-1.7,2c0,2.1-1.6,3.2-3.6,3.2c-2,0-2.8-1.1-2.8-4.4l0-8.1c0-1.4-0.2-2.8-0.5-4.1l0,0
			c0,0,0-0.1,0-0.1c-0.9-3.5-3-6.6-6.3-8.9c-0.9-0.7-2-1.3-3.2-1.8c-1.1-0.5-2.3-1-3.6-1.3c7.1-2,13.5-8,13.7-15.9h0l0-0.2
			c0,0,0-0.1,0-0.1h0l0-7.6h0c0-9.8-7.8-17.3-24.1-17.3c-2.2,0-4.4,0.1-6.7,0.2c0,0,0,0,0,0v0c-1,0-2.2,0-3.6,0l-7.6,0
			c-9.1,0-11-0.6-12.1-0.6c-0.8,0-1.7,0.7-1.7,1.9c0,1.2,0.9,2,1.7,2c1.1,0,2.2-0.1,7.6-0.1l0,64.8l0,0c-5.4,0-6.5-0.1-7.6-0.1
			c-0.9,0-1.7,0.8-1.7,2c0,1.2,0.8,1.9,1.7,1.9c1.1,0,2.9-0.6,12.1-0.5l7.6,0c9.1,0,9.5,0.6,10.6,0.6c0.8,0,1.7-0.7,1.7-1.9
			c0-1.2-0.9-2-1.7-2c-1.1,0-2.2,0.1-7.6,0.1l0-24.6l4,0c0,0,0,0,0.1,0c0.6,0,1.2,0.1,1.8,0.1c6.3,0.8,9.2,7.7,9.8,14.3l0,0
			c0,0,0.1,1.5,0.5,3.3l0,0v0c1.9,8.5,8.3,11.6,15.3,11.6c5.5,0,9.6-2.8,9.6-6.8C68.7,108.7,67.8,107.7,66.8,107.7z M43.3,68.6
			c0,12-4.6,15.1-12.1,15.1l-3.7,0l0-31.7v-4.6l4.5,0c8.4,0,11.4,3.6,11.4,13.1L43.3,68.6z"/>
	</g>
</g>
</svg>
